<svg width="109" height="20" viewBox="0 0 109 20" fill="none" xmlns="http://www.w3.org/2000/svg">
<g clip-path="url(#clip0_14_2)">
<path d="M9.92383 17.1562C9.07096 17.1562 8.04883 17.0749 6.85742 16.9121C5.67253 16.7493 4.66016 16.5443 3.82031 16.2969C3.56641 16.2057 3.43945 16.0072 3.43945 15.7012C3.38737 14.2233 3.35482 12.9766 3.3418 11.9609C3.3418 11.668 3.44922 11.4857 3.66406 11.4141C3.87891 11.3424 4.07747 11.4043 4.25977 11.5996C4.87826 12.14 5.58464 12.5469 6.37891 12.8203C7.17969 13.0872 8.00651 13.2207 8.85938 13.2207C9.51693 13.2207 10.0117 13.1165 10.3438 12.9082C10.6758 12.6999 10.8418 12.4167 10.8418 12.0586C10.8418 11.8307 10.7409 11.6289 10.5391 11.4531C10.3438 11.2708 10.0801 11.1178 9.74805 10.9941C9.42253 10.8704 9.05143 10.7402 8.63477 10.6035C8.2181 10.4668 7.78841 10.3333 7.3457 10.2031C6.90951 10.0664 6.47982 9.89388 6.05664 9.68555C5.63997 9.4707 5.26562 9.23633 4.93359 8.98242C4.60807 8.72852 4.3444 8.40299 4.14258 8.00586C3.94076 7.60221 3.83984 7.15299 3.83984 6.6582C3.83984 5.36914 4.36719 4.41211 5.42188 3.78711C6.47656 3.1556 7.98372 2.83984 9.94336 2.83984C10.7767 2.83984 11.6621 2.89844 12.5996 3.01562C13.5436 3.1263 14.3704 3.28255 15.0801 3.48438C15.3405 3.58854 15.4805 3.76758 15.5 4.02148C15.513 4.24284 15.5488 4.74089 15.6074 5.51562C15.6725 6.29036 15.7116 6.86003 15.7246 7.22461C15.7441 7.5306 15.653 7.72591 15.4512 7.81055C15.2559 7.89518 15.0736 7.84635 14.9043 7.66406C14.39 7.31901 13.8105 7.04557 13.166 6.84375C12.5215 6.64193 11.8997 6.53451 11.3008 6.52148C10.5977 6.50846 10.0247 6.58984 9.58203 6.76562C9.13932 6.94141 8.91797 7.19206 8.91797 7.51758C8.91797 7.73242 9.02539 7.92773 9.24023 8.10352C9.46159 8.27279 9.7513 8.41276 10.1094 8.52344C10.474 8.63411 10.8841 8.75781 11.3398 8.89453C11.8021 9.03125 12.2708 9.16471 12.7461 9.29492C13.2279 9.41862 13.6966 9.59115 14.1523 9.8125C14.6146 10.0339 15.0215 10.2812 15.373 10.5547C15.7311 10.8216 16.0176 11.1699 16.2324 11.5996C16.4538 12.0228 16.5645 12.5013 16.5645 13.0352C16.5579 14.3568 15.9753 15.3757 14.8164 16.0918C13.6641 16.8014 12.0332 17.1562 9.92383 17.1562ZM21.3496 17.1562C20.0345 17.1562 18.9896 16.7005 18.2148 15.7891C17.4401 14.8711 17.0527 13.543 17.0527 11.8047C17.0527 10.0013 17.4368 8.58203 18.2051 7.54688C18.9798 6.50521 20.0215 5.98438 21.3301 5.98438C22.1829 5.98438 22.8861 6.18294 23.4395 6.58008C23.9993 6.97721 24.4746 7.58919 24.8652 8.41602C24.9759 8.61784 25.0931 8.71224 25.2168 8.69922C25.3405 8.67969 25.3991 8.53971 25.3926 8.2793C25.3405 6.79492 25.1517 5.1543 24.8262 3.35742C24.8001 3.20117 24.8424 3.06445 24.9531 2.94727C25.0638 2.83008 25.2038 2.75521 25.373 2.72266C25.7572 2.68359 26.4766 2.66406 27.5312 2.66406C28.4492 2.66406 29.0872 2.6901 29.4453 2.74219C29.5885 2.76172 29.709 2.82031 29.8066 2.91797C29.9108 3.00911 29.9661 3.12956 29.9727 3.2793C30.0964 4.7832 30.2038 6.77539 30.2949 9.25586C30.3861 11.7363 30.4316 14.1191 30.4316 16.4043C30.4316 16.5605 30.3828 16.694 30.2852 16.8047C30.1875 16.9154 30.0605 16.9805 29.9043 17C29.3574 17.0521 28.625 17.0781 27.707 17.0781C26.8477 17.0781 26.1803 17.0521 25.7051 17C25.5358 16.9805 25.3991 16.9154 25.2949 16.8047C25.1973 16.6875 25.1615 16.5475 25.1875 16.3848C25.2721 15.89 25.3242 15.4212 25.3438 14.9785C25.3633 14.7376 25.3145 14.6074 25.1973 14.5879C25.0866 14.5618 24.9759 14.653 24.8652 14.8613C24.5137 15.584 24.0384 16.1471 23.4395 16.5508C22.8405 16.9544 22.1439 17.1562 21.3496 17.1562ZM23.7129 13.4648C24.1882 13.4648 24.5755 13.2988 24.875 12.9668C25.1745 12.6348 25.3242 12.1855 25.3242 11.6191C25.3242 11.0462 25.1745 10.584 24.875 10.2324C24.5755 9.87435 24.1882 9.69531 23.7129 9.69531C23.2181 9.69531 22.821 9.87435 22.5215 10.2324C22.222 10.584 22.0723 11.0462 22.0723 11.6191C22.0723 12.1855 22.222 12.6348 22.5215 12.9668C22.821 13.2988 23.2181 13.4648 23.7129 13.4648ZM37.248 17.1562C36.5124 17.1562 35.8353 17.0977 35.2168 16.9805C34.6048 16.8568 34.0384 16.6615 33.5176 16.3945C33.0033 16.1276 32.5671 15.7923 32.209 15.3887C31.8509 14.9785 31.571 14.4772 31.3691 13.8848C31.1738 13.2923 31.0762 12.6185 31.0762 11.8633C31.0762 10.0729 31.6458 8.64388 32.7852 7.57617C33.931 6.50195 35.4186 5.96484 37.248 5.96484C39.0775 5.96484 40.5618 6.50195 41.7012 7.57617C42.8405 8.64388 43.4102 10.0729 43.4102 11.8633C43.4102 12.8008 43.2604 13.6146 42.9609 14.3047C42.6615 14.9948 42.2318 15.5449 41.6719 15.9551C41.112 16.3652 40.4642 16.668 39.7285 16.8633C38.9993 17.0586 38.1725 17.1562 37.248 17.1562ZM36.0371 13.0938C36.3496 13.4714 36.7533 13.6602 37.248 13.6602C37.7428 13.6602 38.1465 13.4714 38.459 13.0938C38.7715 12.7161 38.9277 12.2116 38.9277 11.5801C38.9277 10.9551 38.7715 10.444 38.459 10.0469C38.1465 9.64323 37.7428 9.44141 37.248 9.44141C36.7533 9.44141 36.3496 9.64323 36.0371 10.0469C35.7246 10.444 35.5684 10.9551 35.5684 11.5801C35.5684 12.2116 35.7246 12.7161 36.0371 13.0938ZM46.5059 17.0781C45.8743 17.0781 45.1484 17.0521 44.3281 17C44.1784 16.9805 44.0547 16.9186 43.957 16.8145C43.8594 16.7103 43.8105 16.5801 43.8105 16.4238C43.8301 12.6543 43.9701 9.39258 44.2305 6.63867C44.237 6.50195 44.2891 6.38802 44.3867 6.29688C44.4844 6.19922 44.6048 6.14062 44.748 6.12109C45.0931 6.06901 45.7083 6.04297 46.5938 6.04297C47.5703 6.04297 48.2539 6.06901 48.6445 6.12109C48.8333 6.14062 48.9766 6.21549 49.0742 6.3457C49.1784 6.4694 49.2109 6.61263 49.1719 6.77539C48.9961 7.69336 48.9082 8.53646 48.9082 9.30469C48.9082 9.44141 48.9342 9.54232 48.9863 9.60742C49.0384 9.66602 49.097 9.67578 49.1621 9.63672C49.2272 9.59115 49.276 9.50651 49.3086 9.38281C49.8164 7.11719 50.8223 5.98438 52.3262 5.98438C53.1335 5.98438 53.7812 6.20898 54.2695 6.6582C54.4714 6.83398 54.5723 7.07487 54.5723 7.38086C54.5462 7.82357 54.4518 9.05078 54.2891 11.0625C54.2695 11.3034 54.1621 11.4596 53.9668 11.5312C53.778 11.5964 53.612 11.5378 53.4688 11.3555C52.7917 10.7435 52.0527 10.4375 51.252 10.4375C50.6465 10.4375 50.1094 10.6686 49.6406 11.1309C49.1784 11.5931 48.9473 12.1888 48.9473 12.918C48.9473 13.9336 49.0482 15.0729 49.25 16.3359C49.276 16.5182 49.2337 16.6745 49.123 16.8047C49.0124 16.9284 48.8757 17 48.7129 17.0195C48.3548 17.0586 47.6191 17.0781 46.5059 17.0781ZM57.8926 17.0781C56.9746 17.0781 56.2422 17.0521 55.6953 17C55.5391 16.9805 55.4121 16.9154 55.3145 16.8047C55.2168 16.694 55.1712 16.5605 55.1777 16.4043C55.1777 12.3158 55.3307 9.08659 55.6367 6.7168C55.7083 6.35872 55.8874 6.16016 56.1738 6.12109C56.6165 6.06901 57.2773 6.04297 58.1562 6.04297C58.944 6.04297 59.6113 6.06901 60.1582 6.12109C60.321 6.13411 60.4544 6.21224 60.5586 6.35547C60.6693 6.4987 60.7018 6.64844 60.6562 6.80469C60.4023 7.67708 60.2689 8.35417 60.2559 8.83594C60.2559 9.04427 60.3112 9.1582 60.4219 9.17773C60.5391 9.19076 60.6302 9.10612 60.6953 8.92383C61.0339 7.95378 61.5091 7.22135 62.1211 6.72656C62.7331 6.23177 63.446 5.98438 64.2598 5.98438C65.4967 5.98438 66.4635 6.4694 67.1602 7.43945C67.8633 8.40299 68.2832 9.73112 68.4199 11.4238C68.5371 12.778 68.5827 14.4577 68.5566 16.4629C68.5371 16.7819 68.3646 16.9609 68.0391 17C67.4466 17.0521 66.7728 17.0781 66.0176 17.0781C65.2298 17.0781 64.5234 17.0521 63.8984 17C63.7422 16.9805 63.612 16.9154 63.5078 16.8047C63.4036 16.6875 63.3548 16.5475 63.3613 16.3848C63.5176 14.627 63.5957 13.3997 63.5957 12.7031C63.5827 12.013 63.4264 11.4303 63.127 10.9551C62.8275 10.4798 62.4303 10.2422 61.9355 10.2422C61.4342 10.2422 61.0273 10.4831 60.7148 10.9648C60.4089 11.4466 60.2559 12.0326 60.2559 12.7227C60.2754 13.8164 60.3372 15.0436 60.4414 16.4043C60.4609 16.5671 60.4186 16.7038 60.3145 16.8145C60.2103 16.9186 60.0768 16.9805 59.9141 17C59.4388 17.0521 58.765 17.0781 57.8926 17.0781ZM72.2969 17.1562C70.194 17.1562 69.1426 16.1504 69.1426 14.1387C69.1426 13.6374 69.2695 13.1816 69.5234 12.7715C69.7839 12.3613 70.1419 12.0195 70.5977 11.7461C71.0599 11.4727 71.5807 11.248 72.1602 11.0723C72.7396 10.8965 73.3776 10.7663 74.0742 10.6816C74.7708 10.597 75.2656 10.4993 75.5586 10.3887C75.8516 10.278 75.998 10.0957 75.998 9.8418C75.998 9.62695 75.8743 9.45117 75.627 9.31445C75.3796 9.17122 74.9889 9.09961 74.4551 9.09961C73.9082 9.09961 73.2702 9.21354 72.541 9.44141C71.8184 9.66276 71.1836 9.96224 70.6367 10.3398C70.4674 10.5221 70.2982 10.5677 70.1289 10.4766C69.9596 10.3854 69.875 10.2064 69.875 9.93945C69.862 9.32747 69.8978 8.40625 69.9824 7.17578C70.002 6.84375 70.1289 6.63216 70.3633 6.54102C71.4701 6.1569 72.987 5.96484 74.9141 5.96484C75.9036 5.96484 76.7598 6.0625 77.4824 6.25781C78.2051 6.44661 78.778 6.72331 79.2012 7.08789C79.6309 7.45247 79.9531 7.86263 80.168 8.31836C80.3893 8.77409 80.5326 9.30143 80.5977 9.90039C80.832 12.1139 80.9785 14.2754 81.0371 16.3848C81.0371 16.7298 80.8646 16.9349 80.5195 17C80.0768 17.0521 79.4355 17.0781 78.5957 17.0781C77.8145 17.0781 77.1764 17.0521 76.6816 17C76.4277 16.9674 76.2292 16.8796 76.0859 16.7363C75.9492 16.5931 75.9004 16.4141 75.9395 16.1992C76.0046 15.7565 76.0632 15.2715 76.1152 14.7441C76.1283 14.5423 76.0794 14.4284 75.9688 14.4023C75.8646 14.3698 75.7734 14.4479 75.6953 14.6367C75.3763 15.4896 74.9173 16.1243 74.3184 16.541C73.7259 16.9512 73.0521 17.1562 72.2969 17.1562ZM74.7578 13.7383C75.0443 13.7383 75.3307 13.6016 75.6172 13.3281C75.9102 13.0547 76.0566 12.7064 76.0566 12.2832C76.0566 12.0553 75.9915 11.8698 75.8613 11.7266C75.7376 11.5768 75.5618 11.502 75.334 11.502C74.9499 11.502 74.6048 11.6354 74.2988 11.9023C73.9928 12.1628 73.8398 12.4883 73.8398 12.8789C73.8398 13.1784 73.9115 13.3965 74.0547 13.5332C74.2044 13.6699 74.4388 13.7383 74.7578 13.7383ZM84.543 17.0781C83.5859 17.0781 82.8438 17.0521 82.3164 17C82.1602 16.9805 82.0299 16.9154 81.9258 16.8047C81.8281 16.694 81.7793 16.5605 81.7793 16.4043C81.7793 14.2233 81.8249 11.8926 81.916 9.41211C82.0072 6.92513 82.1146 4.87435 82.2383 3.25977C82.2578 3.11654 82.3164 2.99935 82.4141 2.9082C82.5182 2.81706 82.6452 2.76172 82.7949 2.74219C83.2376 2.6901 83.8529 2.66406 84.6406 2.66406C85.6953 2.66406 86.4212 2.68359 86.8184 2.72266C86.9811 2.74219 87.1113 2.81055 87.209 2.92773C87.3132 3.04492 87.3555 3.18815 87.3359 3.35742C86.9648 6.89909 86.8737 11.248 87.0625 16.4043C87.069 16.5736 87.0234 16.7103 86.9258 16.8145C86.8281 16.9186 86.6979 16.9805 86.5352 17C86.0729 17.0521 85.4089 17.0781 84.543 17.0781ZM91.1445 17.1562C89.0417 17.1562 87.9902 16.1504 87.9902 14.1387C87.9902 13.6374 88.1172 13.1816 88.3711 12.7715C88.6315 12.3613 88.9896 12.0195 89.4453 11.7461C89.9076 11.4727 90.4284 11.248 91.0078 11.0723C91.5872 10.8965 92.2253 10.7663 92.9219 10.6816C93.6185 10.597 94.1133 10.4993 94.4062 10.3887C94.6992 10.278 94.8457 10.0957 94.8457 9.8418C94.8457 9.62695 94.722 9.45117 94.4746 9.31445C94.2272 9.17122 93.8366 9.09961 93.3027 9.09961C92.7559 9.09961 92.1178 9.21354 91.3887 9.44141C90.666 9.66276 90.0312 9.96224 89.4844 10.3398C89.3151 10.5221 89.1458 10.5677 88.9766 10.4766C88.8073 10.3854 88.7227 10.2064 88.7227 9.93945C88.7096 9.32747 88.7454 8.40625 88.8301 7.17578C88.8496 6.84375 88.9766 6.63216 89.2109 6.54102C90.3177 6.1569 91.8346 5.96484 93.7617 5.96484C94.7513 5.96484 95.6074 6.0625 96.3301 6.25781C97.0527 6.44661 97.6257 6.72331 98.0488 7.08789C98.4785 7.45247 98.8008 7.86263 99.0156 8.31836C99.237 8.77409 99.3802 9.30143 99.4453 9.90039C99.6797 12.1139 99.8262 14.2754 99.8848 16.3848C99.8848 16.7298 99.7122 16.9349 99.3672 17C98.9245 17.0521 98.2832 17.0781 97.4434 17.0781C96.6621 17.0781 96.0241 17.0521 95.5293 17C95.2754 16.9674 95.0768 16.8796 94.9336 16.7363C94.7969 16.5931 94.748 16.4141 94.7871 16.1992C94.8522 15.7565 94.9108 15.2715 94.9629 14.7441C94.9759 14.5423 94.9271 14.4284 94.8164 14.4023C94.7122 14.3698 94.6211 14.4479 94.543 14.6367C94.224 15.4896 93.765 16.1243 93.166 16.541C92.5736 16.9512 91.8997 17.1562 91.1445 17.1562ZM93.6055 13.7383C93.8919 13.7383 94.1784 13.6016 94.4648 13.3281C94.7578 13.0547 94.9043 12.7064 94.9043 12.2832C94.9043 12.0553 94.8392 11.8698 94.709 11.7266C94.5853 11.5768 94.4095 11.502 94.1816 11.502C93.7975 11.502 93.4525 11.6354 93.1465 11.9023C92.8405 12.1628 92.6875 12.4883 92.6875 12.8789C92.6875 13.1784 92.7591 13.3965 92.9023 13.5332C93.0521 13.6699 93.2865 13.7383 93.6055 13.7383ZM102.727 17.0781C102.056 17.0781 101.512 16.8893 101.096 16.5117C100.679 16.1276 100.471 15.597 100.471 14.9199C100.471 14.2298 100.679 13.6927 101.096 13.3086C101.512 12.918 102.056 12.7227 102.727 12.7227C103.41 12.7227 103.96 12.918 104.377 13.3086C104.794 13.6927 105.002 14.2363 105.002 14.9395C105.002 15.61 104.79 16.1341 104.367 16.5117C103.951 16.8893 103.404 17.0781 102.727 17.0781Z" fill="#60D94A" fill-opacity="0.890196"/>
</g>
<defs>
<clipPath id="clip0_14_2">
<rect width="109" height="20" fill="white"/>
</clipPath>
</defs>
</svg>
